<svg xmlns="http://www.w3.org/2000/svg" xmlns:xlink="http://www.w3.org/1999/xlink" width="100" zoomAndPan="magnify" viewBox="0 0 75 74.999997" height="100" preserveAspectRatio="xMidYMid meet" version="1.0"><defs><clipPath id="a779f094e7"><path d="M 9.039062 9.039062 L 66.039062 9.039062 L 66.039062 66.039062 L 9.039062 66.039062 Z M 9.039062 9.039062 " clip-rule="nonzero"/></clipPath></defs><g clip-path="url(#a779f094e7)"><path fill="#000000" d="M 36.617188 48.539062 L 36.507812 48.53125 C 36.488281 48.53125 36.488281 48.53125 36.472656 48.53125 C 35.109375 48.402344 33.769531 48.128906 32.460938 47.707031 C 31.359375 47.335938 30.328125 46.804688 29.390625 46.105469 C 29.191406 45.957031 29.0625 45.738281 29.023438 45.5 C 28.988281 45.261719 29.0625 45.019531 29.207031 44.820312 C 29.355469 44.617188 29.558594 44.488281 29.816406 44.449219 C 30.054688 44.433594 30.292969 44.488281 30.496094 44.636719 C 31.265625 45.203125 32.113281 45.644531 33.03125 45.957031 C 34.210938 46.328125 35.40625 46.582031 36.636719 46.710938 L 37.59375 46.75 C 39.082031 46.785156 40.554688 46.308594 41.730469 45.390625 C 42.613281 44.726562 43.164062 43.695312 43.199219 42.59375 C 43.199219 41.949219 42.980469 41.34375 42.613281 40.828125 C 41.949219 39.984375 41.121094 39.320312 40.148438 38.898438 C 39.027344 38.363281 37.851562 37.90625 36.65625 37.554688 C 35.699219 37.242188 34.761719 36.894531 33.839844 36.507812 C 32.960938 36.160156 32.148438 35.644531 31.46875 34.980469 C 30.585938 34.097656 30.109375 32.921875 30.089844 31.691406 C 30.109375 30.550781 30.53125 29.445312 31.285156 28.582031 C 32.1875 27.570312 33.363281 26.855469 34.667969 26.488281 C 35.296875 26.289062 35.957031 26.148438 36.617188 26.082031 L 36.617188 22.828125 C 36.617188 22.589844 36.710938 22.351562 36.894531 22.183594 C 37.058594 22 37.296875 21.910156 37.539062 21.910156 C 37.777344 21.910156 38.015625 22 38.179688 22.183594 C 38.363281 22.351562 38.457031 22.589844 38.457031 22.828125 L 38.457031 26.066406 C 38.664062 26.085938 38.875 26.105469 39.082031 26.136719 C 39.890625 26.246094 40.699219 26.449219 41.472656 26.746094 C 42.375 27.09375 43.257812 27.515625 44.101562 28.011719 C 44.304688 28.140625 44.449219 28.34375 44.523438 28.582031 C 44.578125 28.820312 44.542969 29.0625 44.414062 29.28125 C 44.285156 29.484375 44.082031 29.632812 43.84375 29.6875 C 43.625 29.757812 43.367188 29.722656 43.164062 29.59375 C 42.410156 29.152344 41.636719 28.765625 40.828125 28.472656 C 40.167969 28.234375 39.503906 28.050781 38.824219 27.957031 C 38.21875 27.867188 37.59375 27.847656 36.984375 27.902344 C 36.359375 27.9375 35.773438 28.066406 35.183594 28.253906 C 34.210938 28.507812 33.328125 29.0625 32.648438 29.816406 C 32.207031 30.328125 31.949219 30.992188 31.929688 31.691406 C 31.949219 32.425781 32.242188 33.144531 32.757812 33.65625 C 33.273438 34.152344 33.878906 34.539062 34.539062 34.816406 C 35.40625 35.183594 36.304688 35.515625 37.207031 35.789062 C 38.476562 36.175781 39.707031 36.65625 40.921875 37.226562 C 42.152344 37.777344 43.238281 38.640625 44.082031 39.707031 C 44.691406 40.554688 45.039062 41.5625 45.039062 42.613281 C 44.984375 44.285156 44.175781 45.847656 42.851562 46.839844 C 41.570312 47.828125 40.042969 48.429688 38.453125 48.558594 C 38.457031 48.5625 38.457031 48.566406 38.457031 48.570312 L 38.457031 52.246094 C 38.457031 52.484375 38.363281 52.726562 38.179688 52.890625 C 38.015625 53.074219 37.777344 53.167969 37.539062 53.167969 C 37.296875 53.167969 37.058594 53.074219 36.894531 52.890625 C 36.710938 52.726562 36.617188 52.484375 36.617188 52.246094 L 36.617188 48.570312 C 36.617188 48.558594 36.617188 48.550781 36.617188 48.539062 Z M 10.875 37.539062 C 10.875 30.476562 13.6875 23.691406 18.691406 18.691406 C 23.691406 13.6875 30.476562 10.875 37.539062 10.875 C 44.597656 10.875 51.382812 13.6875 56.382812 18.691406 C 61.386719 23.691406 64.199219 30.476562 64.199219 37.539062 C 64.199219 44.597656 61.386719 51.382812 56.382812 56.382812 C 51.382812 61.386719 44.597656 64.199219 37.539062 64.199219 C 30.476562 64.199219 23.691406 61.386719 18.691406 56.382812 C 13.6875 51.382812 10.875 44.597656 10.875 37.539062 Z M 9.039062 37.539062 C 9.039062 29.980469 12.035156 22.734375 17.386719 17.386719 C 22.734375 12.035156 29.980469 9.039062 37.539062 9.039062 C 45.09375 9.039062 52.339844 12.035156 57.691406 17.386719 C 63.039062 22.734375 66.039062 29.980469 66.039062 37.539062 C 66.039062 45.09375 63.039062 52.339844 57.691406 57.691406 C 52.339844 63.039062 45.09375 66.039062 37.539062 66.039062 C 29.980469 66.039062 22.734375 63.039062 17.386719 57.691406 C 12.035156 52.339844 9.039062 45.09375 9.039062 37.539062 Z M 9.039062 37.539062 " fill-opacity="1" fill-rule="evenodd"/></g></svg>