<svg width="16" height="18" viewBox="0 0 16 18" fill="none" xmlns="http://www.w3.org/2000/svg">
<path fill-rule="evenodd" clip-rule="evenodd" d="M4.75 5C4.75 3.20507 6.20507 1.75 8 1.75C9.79493 1.75 11.25 3.20507 11.25 5C11.25 6.79493 9.79493 8.25 8 8.25C6.20507 8.25 4.75 6.79493 4.75 5ZM10.8583 8.79412C12.0073 7.92715 12.75 6.55031 12.75 5C12.75 2.37665 10.6234 0.25 8 0.25C5.37665 0.25 3.25 2.37665 3.25 5C3.25 6.55031 3.99271 7.92715 5.14172 8.79412C2.27612 9.93175 0.25 12.7293 0.25 16V17C0.25 17.4142 0.585786 17.75 1 17.75C1.41421 17.75 1.75 17.4142 1.75 17V16C1.75 12.5482 4.54822 9.75 8 9.75C11.4518 9.75 14.25 12.5482 14.25 16V17C14.25 17.4142 14.5858 17.75 15 17.75C15.4142 17.75 15.75 17.4142 15.75 17V16C15.75 12.7293 13.7239 9.93175 10.8583 8.79412Z" fill="#292927"/>
</svg>
