<svg width="22" height="20" viewBox="0 0 22 20" fill="none" xmlns="http://www.w3.org/2000/svg">
<path fill-rule="evenodd" clip-rule="evenodd" d="M0.664632 5.32892C0.294148 5.51416 0.14398 5.96466 0.329222 6.33515C0.514464 6.70563 0.964969 6.8558 1.33545 6.67056L11 1.83826L20.6646 6.67056C21.0351 6.8558 21.4856 6.70563 21.6709 6.33515C21.8561 5.96466 21.7059 5.51416 21.3355 5.32892L11.6038 0.46308C11.2237 0.273048 10.7764 0.27305 10.3963 0.46308L0.664632 5.32892ZM3.75003 8.9999C3.75003 8.58569 3.41424 8.2499 3.00003 8.2499C2.58582 8.2499 2.25003 8.58569 2.25003 8.9999V16.9999C2.25003 18.5187 3.48125 19.7499 5.00003 19.7499H17C18.5188 19.7499 19.75 18.5187 19.75 16.9999V8.9999C19.75 8.58569 19.4142 8.2499 19 8.2499C18.5858 8.2499 18.25 8.58569 18.25 8.9999V16.9999C18.25 17.6903 17.6904 18.2499 17 18.2499H5.00003C4.30967 18.2499 3.75003 17.6903 3.75003 16.9999V8.9999Z" fill="#292927"/>
</svg>
