<svg width="25" height="24" viewBox="0 0 25 24" fill="none" xmlns="http://www.w3.org/2000/svg">
<path fill-rule="evenodd" clip-rule="evenodd" d="M4.5 20.25V3.75H21V20.25H4.5ZM4.35 2.25C3.60442 2.25 3 2.85441 3 3.6V20.4C3 21.1456 3.60441 21.75 4.35 21.75H21.15C21.8956 21.75 22.5 21.1456 22.5 20.4V3.6C22.5 2.85442 21.8956 2.25 21.15 2.25H4.35ZM17.5 8C17.5 7.58579 17.1642 7.25 16.75 7.25C16.3358 7.25 16 7.58579 16 8V16C16 16.4142 16.3358 16.75 16.75 16.75C17.1642 16.75 17.5 16.4142 17.5 16V8ZM13.5 11C13.5 10.5858 13.1642 10.25 12.75 10.25C12.3358 10.25 12 10.5858 12 11V16C12 16.4142 12.3358 16.75 12.75 16.75C13.1642 16.75 13.5 16.4142 13.5 16V11ZM8.75 12.25C9.16421 12.25 9.5 12.5858 9.5 13V16C9.5 16.4142 9.16421 16.75 8.75 16.75C8.33579 16.75 8 16.4142 8 16V13C8 12.5858 8.33579 12.25 8.75 12.25Z" fill="#292927"/>
</svg>
