<svg width="22" height="22" viewBox="0 0 22 22" fill="none" xmlns="http://www.w3.org/2000/svg">
<path fill-rule="evenodd" clip-rule="evenodd" d="M0.25 1C0.25 0.585786 0.585786 0.25 1 0.25C2.96839 0.25 4.05306 1.34155 4.51124 2.25H21C21.2224 2.25 21.4333 2.3487 21.5758 2.51944C21.7183 2.69018 21.7777 2.91536 21.7379 3.13416L19.7402 14.1213C19.7226 14.2295 19.6819 14.33 19.6232 14.4175C19.5904 14.4664 19.552 14.5111 19.5091 14.5508C19.3754 14.6744 19.1965 14.75 19 14.75H6H4.23077C3.43492 14.75 2.93322 14.9259 2.64869 15.1411C2.39118 15.3359 2.25 15.6065 2.25 16C2.25 16.3935 2.39118 16.6641 2.64869 16.8589C2.93322 17.0741 3.43492 17.25 4.23077 17.25H8.5H18.5C19.7426 17.25 20.75 18.2574 20.75 19.5C20.75 20.7426 19.7426 21.75 18.5 21.75C17.2574 21.75 16.25 20.7426 16.25 19.5C16.25 19.237 16.2951 18.9846 16.378 18.75H10.622C10.7049 18.9846 10.75 19.237 10.75 19.5C10.75 20.7426 9.74264 21.75 8.5 21.75C7.25736 21.75 6.25 20.7426 6.25 19.5C6.25 19.237 6.29512 18.9846 6.37803 18.75H4.23077C3.24231 18.75 2.37863 18.5353 1.74385 18.0552C1.08205 17.5547 0.75 16.8253 0.75 16C0.75 15.1747 1.08205 14.4453 1.74385 13.9448C2.37863 13.4647 3.24231 13.25 4.23077 13.25H5.10134L3.26716 3.16199C3.15331 2.74877 2.56536 1.75 1 1.75C0.585786 1.75 0.25 1.41421 0.25 1ZM6.62593 13.25H18.3741L20.1013 3.75H4.89866L6.62593 13.25Z" fill="#292927"/>
</svg>
