<svg width="25" height="24" viewBox="0 0 25 24" fill="none" xmlns="http://www.w3.org/2000/svg">
<path fill-rule="evenodd" clip-rule="evenodd" d="M15.9279 4.39527C16.7215 4.18366 17.5 4.78178 17.5 5.60306V6.25H8.97269L15.9279 4.39527ZM2.5 8.99984V8.5364C2.5 7.29051 3.33761 6.20027 4.54143 5.87925L15.5414 2.94592C17.2873 2.48036 19 3.79623 19 5.60306V6.25H19.25C20.7688 6.25 22 7.48122 22 9V18C22 19.5188 20.7688 20.75 19.25 20.75H5.25C3.73122 20.75 2.5 19.5188 2.5 18V9C2.5 8.99995 2.5 8.99989 2.5 8.99984ZM4 8.99984C4 8.99989 4 8.99995 4 9V18C4 18.6904 4.55964 19.25 5.25 19.25H19.25C19.9404 19.25 20.5 18.6904 20.5 18V9C20.5 8.30964 19.9404 7.75 19.25 7.75H5.25C4.5597 7.75 4.00009 8.30956 4 8.99984ZM18 13.5C18 12.8096 17.4404 12.25 16.75 12.25C16.0596 12.25 15.5 12.8096 15.5 13.5C15.5 14.1904 16.0596 14.75 16.75 14.75C17.4404 14.75 18 14.1904 18 13.5Z" fill="#292927"/>
</svg>
