<svg width="19" height="22" viewBox="0 0 19 22" fill="none" xmlns="http://www.w3.org/2000/svg">
<path d="M0.75 5.53572C0.75 5.15694 0.964002 4.81068 1.30279 4.64129L8.87422 0.855573C9.15574 0.714809 9.48711 0.714809 9.76864 0.855573L17.3401 4.64129C17.6789 4.81068 17.8929 5.15694 17.8929 5.53571V15.7282C17.8929 16.107 17.6789 16.4533 17.3401 16.6226L9.76864 20.4084C9.48711 20.5491 9.15574 20.5491 8.87421 20.4084L1.30279 16.6226C0.964002 16.4533 0.75 16.107 0.75 15.7282V5.53572Z" fill="#87A8ED"/>
<path fill-rule="evenodd" clip-rule="evenodd" d="M9.43323 1.52639C9.36285 1.4912 9.28001 1.4912 9.20963 1.52639L1.6382 5.31211C1.5535 5.35446 1.5 5.44102 1.5 5.53572V15.7282C1.5 15.8229 1.5535 15.9095 1.6382 15.9518L9.20962 19.7375C9.28001 19.7727 9.36285 19.7727 9.43323 19.7375L17.0047 15.9518C17.0894 15.9095 17.1429 15.8229 17.1429 15.7282V5.53571C17.1429 5.44102 17.0894 5.35446 17.0047 5.31211L9.43323 1.52639ZM8.53881 0.184752C9.03148 -0.0615845 9.61138 -0.0615838 10.1041 0.184753L17.6755 3.97047C18.2684 4.2669 18.6429 4.87286 18.6429 5.53571V15.7282C18.6429 16.3911 18.2684 16.997 17.6755 17.2935L10.1041 21.0792C9.61138 21.3255 9.03148 21.3255 8.5388 21.0792L0.967376 17.2935C0.374503 16.997 0 16.3911 0 15.7282V5.53572C0 4.87286 0.374503 4.2669 0.967376 3.97047L8.53881 0.184752Z" fill="#3F68BE"/>
<path d="M12.1786 10.632C12.1786 12.21 10.8994 13.4892 9.32144 13.4892C7.74348 13.4892 6.46429 12.21 6.46429 10.632C6.46429 9.05409 7.74348 7.7749 9.32144 7.7749C10.8994 7.7749 12.1786 9.05409 12.1786 10.632Z" fill="#87A8ED"/>
<path fill-rule="evenodd" clip-rule="evenodd" d="M9.32144 8.5249C8.15769 8.5249 7.21429 9.4683 7.21429 10.632C7.21429 11.7958 8.15769 12.7392 9.32144 12.7392C10.4852 12.7392 11.4286 11.7958 11.4286 10.632C11.4286 9.4683 10.4852 8.5249 9.32144 8.5249ZM5.71429 10.632C5.71429 8.63988 7.32927 7.0249 9.32144 7.0249C11.3136 7.0249 12.9286 8.63988 12.9286 10.632C12.9286 12.6242 11.3136 14.2392 9.32144 14.2392C7.32927 14.2392 5.71429 12.6242 5.71429 10.632Z" fill="#4F77CB"/>
</svg>
