<svg width="19" height="24" viewBox="0 0 19 24" fill="none" xmlns="http://www.w3.org/2000/svg">
<path fill-rule="evenodd" clip-rule="evenodd" d="M10.015 0.430496C10.5726 -0.361624 11.8785 0.0115089 11.8785 0.962962V9.31494L17.1082 8.66648C17.9865 8.55757 18.582 9.48862 18.0717 10.1732L8.21019 23.402C7.63847 24.1689 6.36206 23.7866 6.36206 22.8484V14.6119L1.27865 15.8728C0.37443 16.0971 -0.343925 15.1463 0.173931 14.4106L10.015 0.430496ZM6.73706 14.5188C6.73723 14.5188 6.73689 14.5189 6.73706 14.5188ZM11.5405 9.35685C11.5404 9.35687 11.5406 9.35683 11.5405 9.35685ZM10.084 3.3945L2.80024 13.7417L6.28156 12.8782C7.22954 12.643 8.15656 13.319 8.15656 14.2454V20.5291L15.5834 10.5663L11.7739 11.0387C10.8784 11.1497 10.084 10.4908 10.084 9.63715V3.3945ZM16.6048 9.19613L16.6042 9.19695Z" fill="#F4A101"/>
</svg>
