<svg width="22" height="16" viewBox="0 0 22 16" fill="none" xmlns="http://www.w3.org/2000/svg">
<path fill-rule="evenodd" clip-rule="evenodd" d="M0 3.75C0 1.67893 1.67893 0 3.75 0H17.35C19.4211 0 21.1 1.67893 21.1 3.75V4.9498C21.1 5.36413 20.7641 5.7 20.3498 5.7C19.2176 5.7 18.2998 6.61782 18.2998 7.75C18.2998 8.88218 19.2176 9.8 20.3498 9.8C20.7642 9.8 21.1 10.136 21.1 10.5502V11.75C21.1 13.8211 19.4211 15.5 17.35 15.5H3.75C1.67894 15.5 0 13.8211 0 11.75V10.65C0 10.1724 0.383596 9.8142 0.823751 9.7987C1.92142 9.76003 2.7998 8.85744 2.7998 7.75C2.7998 6.64256 1.92142 5.73997 0.823751 5.7013C0.383596 5.68579 0 5.32765 0 4.85001V3.75ZM3.75 1.5C2.50736 1.5 1.5 2.50736 1.5 3.75V4.27948C3.1005 4.62387 4.2998 6.04675 4.2998 7.75C4.2998 9.45325 3.1005 10.8761 1.5 11.2205V11.75C1.5 12.9926 2.50736 14 3.75 14H17.35C18.5926 14 19.6 12.9926 19.6 11.75V11.2207C17.9995 10.8765 16.7998 9.45337 16.7998 7.75C16.7998 6.04663 17.9995 4.62346 19.6 4.27933V3.75C19.6 2.50736 18.5926 1.5 17.35 1.5H3.75Z" fill="#5ECB6C"/>
</svg>
