<svg width="19" height="22" viewBox="0 0 19 22" fill="none" xmlns="http://www.w3.org/2000/svg">
<path d="M0.75 7.71484C0.75 7.16256 1.19772 6.71484 1.75 6.71484H16.8026C17.3549 6.71484 17.8026 7.16256 17.8026 7.71484V13.7324C17.8026 17.608 14.6608 20.7499 10.7851 20.7499H7.76751C3.89185 20.7499 0.75 17.608 0.75 13.7324V7.71484Z" fill="#F0B9E3"/>
<path fill-rule="evenodd" clip-rule="evenodd" d="M0 7.71484C0 6.74835 0.783502 5.96484 1.75 5.96484H16.8026C17.7691 5.96484 18.5526 6.74835 18.5526 7.71484V13.7324C18.5526 18.0222 15.075 21.4999 10.7851 21.4999H7.76751C3.47763 21.4999 0 18.0222 0 13.7324V7.71484ZM1.75 7.46484C1.61193 7.46484 1.5 7.57677 1.5 7.71484V13.7324C1.5 17.1938 4.30606 19.9999 7.76751 19.9999H10.7851C14.2466 19.9999 17.0526 17.1938 17.0526 13.7324V7.71484C17.0526 7.57677 16.9407 7.46484 16.8026 7.46484H1.75Z" fill="#C168AC"/>
<path fill-rule="evenodd" clip-rule="evenodd" d="M6.75739 2.16593C6.13018 2.57893 5.7627 3.15058 5.7627 3.908V10.9257C5.7627 11.34 5.42691 11.6757 5.0127 11.6757C4.59848 11.6757 4.2627 11.34 4.2627 10.9257V3.908C4.2627 2.56014 4.961 1.55281 5.93247 0.913134C6.88192 0.28796 8.10049 1.92533e-05 9.27584 9.71493e-10C10.4512 -1.93109e-05 11.6698 0.287881 12.6192 0.913034C13.5907 1.55269 14.289 2.56002 14.289 3.9079V10.9257C14.289 11.34 13.9532 11.6757 13.539 11.6757C13.1248 11.6757 12.789 11.34 12.789 10.9257V3.9079C12.789 3.15046 12.4215 2.57882 11.7943 2.16585C11.1451 1.73837 10.2321 1.49998 9.27587 1.5C8.31963 1.50002 7.40663 1.73844 6.75739 2.16593Z" fill="#C168AC"/>
<path fill-rule="evenodd" clip-rule="evenodd" d="M5.01172 8.5C5.42593 8.5 5.76172 8.83579 5.76172 9.25V11.926C5.76172 12.3403 5.42593 12.676 5.01172 12.676C4.59751 12.676 4.26172 12.3403 4.26172 11.926V9.25C4.26172 8.83579 4.59751 8.5 5.01172 8.5ZM13.538 8.5C13.9522 8.5 14.288 8.83579 14.288 9.25V11.926C14.288 12.3403 13.9522 12.676 13.538 12.676C13.1238 12.676 12.788 12.3403 12.788 11.926V9.25C12.788 8.83579 13.1238 8.5 13.538 8.5Z" fill="#C574B2"/>
</svg>
